<svg width="952" height="633" viewBox="0 0 952 633" fill="none" xmlns="http://www.w3.org/2000/svg">
<g clip-path="url(#clip0_558_1867)">
<path d="M443.559 515.561C429.647 448.295 412.257 425.868 412.257 425.868L405.614 420.716L397.624 414.51L397.663 413.712L395.768 413.068L395.323 412.722L394.594 412.162L394.476 412.288L394.229 412.545L358.076 400.256L312.211 384.677L290.972 357.071C287.513 352.575 283.06 348.941 277.962 346.454C272.863 343.967 267.258 342.695 261.586 342.737L193.756 343.239C184.585 343.307 175.771 346.803 169.047 353.04L124.464 394.394L54.9946 427.572L54.8773 427.455L54.1478 427.976L43.4142 433.108L43.8572 435.414L37.2137 440.207C37.2137 440.207 19.8237 461.075 5.91169 523.666C2.37262 539.592 0.630557 573.756 0.00176703 615.855C-0.029817 617.984 0.362285 620.099 1.15526 622.076C1.94824 624.053 3.12628 625.852 4.62088 627.369C6.11549 628.887 7.89683 630.092 9.86135 630.915C11.8259 631.737 13.9343 632.161 16.0642 632.162H387.112L433.423 632.162C435.552 632.161 437.659 631.737 439.622 630.915C441.585 630.094 443.366 628.89 444.86 627.374C446.354 625.859 447.533 624.062 448.327 622.087C449.121 620.112 449.515 618 449.486 615.871C448.872 570.062 447.13 532.833 443.559 515.561Z" fill="#3F3D56"/>
<path d="M238.323 317.255C287.4 317.255 327.186 277.47 327.186 228.392C327.186 179.314 287.4 139.529 238.323 139.529C189.245 139.529 149.46 179.314 149.46 228.392C149.46 277.47 189.245 317.255 238.323 317.255Z" fill="#9E616A"/>
<path d="M215.59 312.904C215.21 312.068 214.832 311.229 214.454 310.388C214.6 310.392 214.744 310.413 214.889 310.417L215.59 312.904Z" fill="#2F2E41"/>
<path d="M146.989 143.57C151.483 139.985 156.736 136.686 162.483 136.872C168.229 137.057 174.056 142.247 172.865 147.871C183.42 129.183 200.22 114.81 220.316 107.274C240.412 99.7389 262.521 99.5226 282.761 106.663C297.042 111.702 311.048 121.783 314.329 136.568C315.171 140.363 315.352 144.525 317.721 147.606C320.709 151.492 326.426 152.371 331.133 151.004C331.18 150.991 331.227 150.977 331.274 150.963C332.069 150.691 332.928 150.664 333.738 150.886C334.549 151.108 335.274 151.567 335.821 152.206C336.367 152.844 336.709 153.632 336.803 154.467C336.897 155.302 336.738 156.146 336.347 156.89L332.306 164.426C337.4 165.562 342.693 165.449 347.734 164.098C348.572 163.878 349.457 163.923 350.268 164.226C351.079 164.53 351.776 165.076 352.264 165.791C352.752 166.506 353.007 167.355 352.993 168.221C352.98 169.086 352.699 169.927 352.189 170.626C338.864 188.92 316.603 200.734 293.886 200.595C277.74 200.497 261.428 194.932 245.714 198.645C239.635 200.081 233.955 202.86 229.09 206.778C224.225 210.696 220.299 215.654 217.6 221.287C214.901 226.92 213.498 233.086 213.492 239.333C213.487 245.579 214.881 251.747 217.57 257.385C212.743 252.105 203.411 253.355 198.473 258.532C193.535 263.709 192.257 271.436 192.755 278.573C193.515 289.489 197.792 299.774 202.301 309.785C164.5 308.595 128.746 282.078 116.711 246.213C104.626 210.198 117.292 167.261 146.989 143.57Z" fill="#2F2E41"/>
<path opacity="0.2" d="M87.4641 495.253L112.388 630.86L127.343 632.162L87.4641 495.253Z" fill="black"/>
<path opacity="0.2" d="M362.007 485.026L337.083 630.762L322.128 632.162L362.007 485.026Z" fill="black"/>
<path d="M896 292V292.91C895.999 301.268 892.677 309.284 886.766 315.193C880.855 321.102 872.838 324.421 864.48 324.42H508.71C500.353 324.419 492.339 321.099 486.43 315.19C480.521 309.281 477.201 301.267 477.2 292.91V292H896Z" fill="#F2F2F2"/>
<path d="M551.61 142C525.9 148.35 502.82 128.57 498.79 110.22L500.58 109.9C522.25 105.11 546.44 120.6 551.61 142Z" fill="#5A6EAA"/>
<path d="M541.09 143.84C532.741 143.79 524.573 141.397 517.516 136.935C507.177 130.511 499.371 120.222 497.143 110.085L496.92 109.069L499.714 108.569C521.707 103.715 546.583 119.357 551.912 141.405L552.146 142.372L551.18 142.611C547.879 143.428 544.491 143.841 541.09 143.84ZM499.339 110.668C501.739 119.967 509.022 129.302 518.572 135.237C527.805 141.146 538.995 143.18 549.718 140.899C544.142 120.358 520.795 105.943 500.126 110.526L499.339 110.668Z" fill="#3F3D56"/>
<path d="M896 157.441H477.2V159.441H896V157.441Z" fill="#3F3D56"/>
<path d="M863 325H509C500.251 324.99 491.863 321.51 485.676 315.324C479.49 309.137 476.01 300.749 476 292V120C476.01 111.251 479.49 102.863 485.676 96.6764C491.863 90.4898 500.251 87.0099 509 87H863C871.749 87.0099 880.137 90.4898 886.324 96.6764C892.51 102.863 895.99 111.251 896 120V292C895.99 300.749 892.51 309.137 886.324 315.324C880.137 321.51 871.749 324.99 863 325ZM509 89C500.781 89.0093 492.902 92.2784 487.09 98.09C481.278 103.902 478.009 111.781 478 120V292C478.009 300.219 481.278 308.098 487.09 313.91C492.902 319.722 500.781 322.991 509 323H863C871.219 322.991 879.098 319.722 884.91 313.91C890.722 308.098 893.991 300.219 894 292V120C893.991 111.781 890.722 103.902 884.91 98.09C879.098 92.2784 871.219 89.0093 863 89H509Z" fill="#3F3D56"/>
<path d="M502.5 273C501.042 272.998 499.644 272.387 498.613 271.299C497.582 270.212 497.002 268.738 497 267.2V249.8C497 248.262 497.579 246.786 498.611 245.699C499.642 244.611 501.041 244 502.5 244C503.959 244 505.358 244.611 506.389 245.699C507.421 246.786 508 248.262 508 249.8V267.2C507.998 268.738 507.418 270.212 506.387 271.299C505.356 272.387 503.958 272.998 502.5 273Z" fill="#5A6EAA"/>
<path d="M516.5 273C515.042 272.998 513.644 272.387 512.613 271.299C511.582 270.212 511.002 268.738 511 267.2V249.8C511 248.262 511.579 246.786 512.611 245.699C513.642 244.611 515.041 244 516.5 244C517.959 244 519.358 244.611 520.389 245.699C521.421 246.786 522 248.262 522 249.8V267.2C521.998 268.738 521.418 270.212 520.387 271.299C519.356 272.387 517.958 272.998 516.5 273Z" fill="#5A6EAA"/>
<path d="M531.5 273C530.042 272.998 528.644 272.387 527.613 271.299C526.582 270.212 526.002 268.738 526 267.2V249.8C526 248.262 526.579 246.786 527.611 245.699C528.642 244.611 530.041 244 531.5 244C532.959 244 534.358 244.611 535.389 245.699C536.421 246.786 537 248.262 537 249.8V267.2C536.998 268.738 536.418 270.212 535.387 271.299C534.356 272.387 532.958 272.998 531.5 273Z" fill="#5A6EAA"/>
<path d="M553.5 273C552.042 272.998 550.644 272.387 549.613 271.299C548.582 270.212 548.002 268.738 548 267.2V249.8C548 248.262 548.579 246.786 549.611 245.699C550.642 244.611 552.041 244 553.5 244C554.959 244 556.358 244.611 557.389 245.699C558.421 246.786 559 248.262 559 249.8V267.2C558.998 268.738 558.418 270.212 557.387 271.299C556.356 272.387 554.958 272.998 553.5 273Z" fill="#5A6EAA"/>
<path d="M568 273C566.674 272.998 565.404 272.387 564.466 271.299C563.529 270.212 563.002 268.738 563 267.2V249.8C563 248.262 563.527 246.786 564.464 245.699C565.402 244.611 566.674 244 568 244C569.326 244 570.598 244.611 571.536 245.699C572.473 246.786 573 248.262 573 249.8V267.2C572.998 268.738 572.471 270.212 571.534 271.299C570.597 272.387 569.326 272.998 568 273Z" fill="#5A6EAA"/>
<path d="M582.5 273C581.042 272.998 579.644 272.387 578.613 271.299C577.582 270.212 577.002 268.738 577 267.2V249.8C577 248.262 577.579 246.786 578.611 245.699C579.642 244.611 581.041 244 582.5 244C583.959 244 585.358 244.611 586.389 245.699C587.421 246.786 588 248.262 588 249.8V267.2C587.998 268.738 587.418 270.212 586.387 271.299C585.356 272.387 583.958 272.998 582.5 273Z" fill="#5A6EAA"/>
<path d="M604.5 273C603.042 272.998 601.644 272.387 600.613 271.299C599.582 270.212 599.002 268.738 599 267.2V249.8C599 248.262 599.579 246.786 600.611 245.699C601.642 244.611 603.041 244 604.5 244C605.959 244 607.358 244.611 608.389 245.699C609.421 246.786 610 248.262 610 249.8V267.2C609.998 268.738 609.418 270.212 608.387 271.299C607.356 272.387 605.958 272.998 604.5 273Z" fill="#5A6EAA"/>
<path d="M619 273C617.674 272.998 616.404 272.387 615.466 271.299C614.529 270.212 614.002 268.738 614 267.2V249.8C614 248.262 614.527 246.786 615.464 245.699C616.402 244.611 617.674 244 619 244C620.326 244 621.598 244.611 622.536 245.699C623.473 246.786 624 248.262 624 249.8V267.2C623.998 268.738 623.471 270.212 622.534 271.299C621.597 272.387 620.326 272.998 619 273Z" fill="#5A6EAA"/>
<path d="M633.5 273C632.042 272.998 630.644 272.387 629.613 271.299C628.582 270.212 628.002 268.738 628 267.2V249.8C628 248.262 628.579 246.786 629.611 245.699C630.642 244.611 632.041 244 633.5 244C634.959 244 636.358 244.611 637.389 245.699C638.421 246.786 639 248.262 639 249.8V267.2C638.998 268.738 638.418 270.212 637.387 271.299C636.356 272.387 634.958 272.998 633.5 273Z" fill="#5A6EAA"/>
<path d="M655.5 273C654.042 272.998 652.644 272.387 651.613 271.299C650.582 270.212 650.002 268.738 650 267.2V249.8C650 248.262 650.579 246.786 651.611 245.699C652.642 244.611 654.041 244 655.5 244C656.959 244 658.358 244.611 659.389 245.699C660.421 246.786 661 248.262 661 249.8V267.2C660.998 268.738 660.418 270.212 659.387 271.299C658.356 272.387 656.958 272.998 655.5 273Z" fill="#5A6EAA"/>
<path d="M670.5 273C669.042 272.998 667.644 272.387 666.613 271.299C665.582 270.212 665.002 268.738 665 267.2V249.8C665 248.262 665.579 246.786 666.611 245.699C667.642 244.611 669.041 244 670.5 244C671.959 244 673.358 244.611 674.389 245.699C675.421 246.786 676 248.262 676 249.8V267.2C675.998 268.738 675.418 270.212 674.387 271.299C673.356 272.387 671.958 272.998 670.5 273Z" fill="#5A6EAA"/>
<path d="M684.5 273C683.042 272.998 681.644 272.387 680.613 271.299C679.582 270.212 679.002 268.738 679 267.2V249.8C679 248.262 679.579 246.786 680.611 245.699C681.642 244.611 683.041 244 684.5 244C685.959 244 687.358 244.611 688.389 245.699C689.421 246.786 690 248.262 690 249.8V267.2C689.998 268.738 689.418 270.212 688.387 271.299C687.356 272.387 685.958 272.998 684.5 273Z" fill="#5A6EAA"/>
<path d="M849.444 241.206H830.5V275.794H849.444V241.206Z" fill="#FF5A00"/>
<path d="M831.761 258.5C831.761 251.473 835.012 245.236 840 241.206C836.329 238.273 831.698 236.5 826.647 236.5C814.682 236.5 805 246.339 805 258.5C805 270.661 814.682 280.5 826.647 280.5C831.698 280.5 836.329 278.727 840 275.794C835.005 271.821 831.761 265.527 831.761 258.5Z" fill="#EB001B"/>
<path d="M875 258.5C875 270.661 865.318 280.5 853.353 280.5C848.302 280.5 843.671 278.727 840 275.794C845.051 271.757 848.239 265.527 848.239 258.5C848.239 251.473 844.988 245.236 840 241.206C843.664 238.273 848.295 236.5 853.346 236.5C865.318 236.5 875 246.404 875 258.5Z" fill="#F79E1B"/>
</g>
<defs>
<clipPath id="clip0_558_1867">
<rect width="951.235" height="632.162" fill="white"/>
</clipPath>
</defs>
</svg>
