<svg width="743" height="713" viewBox="0 0 743 713" fill="none" xmlns="http://www.w3.org/2000/svg">
<g clip-path="url(#clip0_380_1796)">
<path d="M548.381 167.892H544.481V60.915C544.481 44.4941 537.958 28.7458 526.347 17.1345C514.735 5.52317 498.987 -1 482.566 -1H255.916C247.785 -1.00013 239.734 0.601217 232.222 3.71262C224.71 6.82401 217.885 11.3845 212.135 17.1338C206.386 22.883 201.825 29.7084 198.713 37.2202C195.602 44.7321 194 52.7832 194 60.914V647.798C194 664.219 200.523 679.967 212.134 691.579C223.746 703.19 239.494 709.713 255.915 709.713H482.563C498.984 709.713 514.732 703.19 526.344 691.579C537.955 679.967 544.478 664.219 544.478 647.798V244.04H548.378L548.381 167.892Z" fill="#3F3D56"/>
<path d="M533.215 55.951V651.126C533.213 663.576 528.267 675.516 519.465 684.321C510.662 693.125 498.723 698.074 486.273 698.078H254.973C242.518 698.08 230.572 693.134 221.763 684.329C212.955 675.524 208.004 663.581 208 651.126V55.951C208.004 43.4965 212.954 31.5535 221.763 22.7487C230.571 13.9439 242.516 8.99841 254.971 9H283.029C281.651 12.388 281.127 16.0625 281.502 19.7006C281.877 23.3387 283.14 26.829 285.18 29.8647C287.22 32.9004 289.974 35.3886 293.201 37.1105C296.427 38.8324 300.028 39.7354 303.685 39.74H435.553C439.21 39.7354 442.811 38.8324 446.037 37.1105C449.264 35.3886 452.018 32.9004 454.058 29.8647C456.098 26.829 457.361 23.3387 457.736 19.7006C458.111 16.0625 457.587 12.388 456.209 9H486.264C498.714 9.00212 510.654 13.9482 519.458 22.7508C528.262 31.5534 533.21 43.492 533.215 55.942V55.951Z" fill="white"/>
<path d="M370.565 296.13C423.896 296.13 467.13 252.896 467.13 199.565C467.13 146.234 423.896 103 370.565 103C317.234 103 274 146.234 274 199.565C274 252.896 317.234 296.13 370.565 296.13Z" fill="#F35A79"/>
<path d="M473.343 399.596H267.806C266.797 399.595 265.829 399.194 265.116 398.48C264.402 397.767 264.001 396.799 264 395.79V344.806C264.001 343.797 264.403 342.83 265.116 342.116C265.83 341.403 266.797 341.001 267.806 341H473.343C474.352 341.001 475.319 341.403 476.033 342.116C476.746 342.83 477.148 343.797 477.149 344.806V395.791C477.148 396.8 476.746 397.767 476.033 398.481C475.319 399.194 474.352 399.596 473.343 399.597V399.596ZM267.806 342.522C267.2 342.523 266.62 342.763 266.192 343.192C265.763 343.62 265.523 344.2 265.522 344.806V395.791C265.523 396.397 265.763 396.977 266.192 397.405C266.62 397.834 267.2 398.074 267.806 398.075H473.343C473.949 398.074 474.529 397.834 474.957 397.405C475.386 396.977 475.626 396.397 475.627 395.791V344.806C475.626 344.2 475.386 343.62 474.957 343.192C474.529 342.763 473.949 342.523 473.343 342.522H267.806Z" fill="#E6E6E6"/>
<path d="M331.37 359.361C330.663 359.361 329.985 359.642 329.485 360.141C328.986 360.641 328.705 361.319 328.705 362.026C328.705 362.732 328.986 363.41 329.485 363.91C329.985 364.409 330.663 364.69 331.37 364.69H456.975C457.681 364.717 458.369 364.463 458.888 363.982C459.406 363.502 459.713 362.835 459.74 362.129C459.767 361.423 459.512 360.735 459.032 360.216C458.552 359.698 457.885 359.391 457.179 359.364C457.14 359.362 457.101 359.362 457.062 359.362L331.37 359.361Z" fill="#E6E6E6"/>
<path d="M331.37 375.345C330.663 375.345 329.985 375.626 329.485 376.125C328.986 376.625 328.705 377.303 328.705 378.009C328.705 378.716 328.986 379.394 329.485 379.894C329.985 380.393 330.663 380.674 331.37 380.674H456.975C457.681 380.701 458.369 380.446 458.888 379.966C459.406 379.486 459.713 378.819 459.74 378.113C459.767 377.407 459.512 376.719 459.032 376.2C458.552 375.681 457.885 375.375 457.179 375.348C457.14 375.346 457.101 375.346 457.062 375.346L331.37 375.345Z" fill="#E6E6E6"/>
<path d="M473.343 487.596H267.806C266.797 487.595 265.829 487.194 265.116 486.48C264.402 485.767 264.001 484.799 264 483.79V432.806C264.001 431.797 264.403 430.83 265.116 430.116C265.83 429.403 266.797 429.001 267.806 429H473.343C474.352 429.001 475.319 429.403 476.033 430.116C476.746 430.83 477.148 431.797 477.149 432.806V483.791C477.147 484.8 476.746 485.767 476.032 486.48C475.319 487.193 474.352 487.595 473.343 487.596ZM267.806 430.522C267.2 430.523 266.62 430.763 266.192 431.192C265.763 431.62 265.523 432.2 265.522 432.806V483.791C265.523 484.397 265.763 484.977 266.192 485.405C266.62 485.834 267.2 486.074 267.806 486.075H473.343C473.949 486.074 474.529 485.834 474.957 485.405C475.386 484.977 475.626 484.397 475.627 483.791V432.806C475.626 432.2 475.386 431.62 474.957 431.192C474.529 430.763 473.949 430.523 473.343 430.522H267.806Z" fill="#E6E6E6"/>
<path d="M331.37 447.637C330.663 447.637 329.985 447.918 329.485 448.417C328.986 448.917 328.705 449.595 328.705 450.302C328.705 451.008 328.986 451.686 329.485 452.186C329.985 452.685 330.663 452.966 331.37 452.966H456.975C457.671 452.962 458.339 452.685 458.834 452.195C459.329 451.706 459.613 451.041 459.624 450.345C459.635 449.648 459.374 448.975 458.895 448.469C458.416 447.963 457.758 447.665 457.062 447.638H331.37V447.637Z" fill="#E6E6E6"/>
<path d="M331.37 463.625C330.663 463.625 329.985 463.906 329.485 464.405C328.986 464.905 328.705 465.583 328.705 466.289C328.705 466.996 328.986 467.674 329.485 468.174C329.985 468.673 330.663 468.954 331.37 468.954H456.975C457.671 468.95 458.339 468.674 458.834 468.184C459.329 467.694 459.613 467.029 459.624 466.333C459.635 465.636 459.374 464.963 458.895 464.457C458.416 463.951 457.758 463.653 457.062 463.626H331.37V463.625Z" fill="#E6E6E6"/>
<path d="M473.343 575.596H267.806C266.797 575.595 265.829 575.194 265.116 574.48C264.402 573.767 264.001 572.799 264 571.79V520.806C264.001 519.797 264.403 518.83 265.116 518.116C265.83 517.403 266.797 517.001 267.806 517H473.343C474.352 517.001 475.319 517.403 476.033 518.116C476.746 518.83 477.148 519.797 477.149 520.806V571.791C477.148 572.8 476.746 573.767 476.033 574.481C475.319 575.194 474.352 575.596 473.343 575.597V575.596ZM267.806 518.522C267.2 518.523 266.62 518.763 266.192 519.192C265.763 519.62 265.523 520.2 265.522 520.806V571.791C265.523 572.397 265.763 572.977 266.192 573.405C266.62 573.834 267.2 574.074 267.806 574.075H473.343C473.949 574.074 474.529 573.834 474.957 573.405C475.386 572.977 475.626 572.397 475.627 571.791V520.806C475.626 520.2 475.386 519.62 474.957 519.192C474.529 518.763 473.949 518.523 473.343 518.522H267.806Z" fill="#E6E6E6"/>
<path d="M331.37 535.64C330.663 535.64 329.985 535.921 329.485 536.42C328.986 536.92 328.705 537.598 328.705 538.304C328.705 539.011 328.986 539.689 329.485 540.188C329.985 540.688 330.663 540.969 331.37 540.969H456.975C457.324 540.982 457.673 540.927 458.001 540.805C458.33 540.684 458.631 540.499 458.888 540.261C459.144 540.023 459.352 539.737 459.498 539.419C459.644 539.101 459.726 538.758 459.74 538.408C459.753 538.058 459.697 537.709 459.576 537.381C459.455 537.053 459.27 536.752 459.032 536.495C458.794 536.238 458.508 536.031 458.19 535.885C457.872 535.738 457.528 535.656 457.179 535.643C457.14 535.641 457.101 535.641 457.062 535.641L331.37 535.64Z" fill="#E6E6E6"/>
<path d="M331.37 551.627C330.663 551.627 329.985 551.908 329.485 552.407C328.986 552.907 328.705 553.585 328.705 554.292C328.705 554.998 328.986 555.676 329.485 556.176C329.985 556.675 330.663 556.956 331.37 556.956H456.975C457.324 556.969 457.673 556.914 458.001 556.792C458.33 556.671 458.631 556.486 458.888 556.248C459.144 556.01 459.352 555.724 459.498 555.406C459.644 555.088 459.726 554.745 459.74 554.395C459.753 554.045 459.697 553.696 459.576 553.368C459.455 553.04 459.27 552.739 459.032 552.482C458.794 552.225 458.508 552.018 458.19 551.872C457.872 551.725 457.528 551.643 457.179 551.63C457.14 551.628 457.101 551.628 457.062 551.628H331.37L331.37 551.627Z" fill="#E6E6E6"/>
<path d="M740.479 712.573H1.93799C0.866988 712.573 0 712.105 0 711.528C0 710.951 0.867988 710.483 1.93799 710.483H740.479C741.549 710.483 742.417 710.951 742.417 711.528C742.417 712.105 741.55 712.573 740.479 712.573Z" fill="#E6E6E6"/>
<path d="M709.201 671.808C706.046 672.917 702.658 673.195 699.364 672.615C696.07 672.034 692.981 670.616 690.395 668.495C683.808 662.967 681.743 653.859 680.063 645.425L675.093 620.48L685.498 627.645C692.981 632.797 700.632 638.115 705.814 645.578C710.996 653.041 713.257 663.229 709.094 671.304" fill="#E6E6E6"/>
<path d="M707.594 703.745C708.904 694.203 710.251 684.539 709.332 674.896C708.516 666.331 705.903 657.966 700.583 651.107C697.759 647.473 694.323 644.36 690.43 641.907C689.415 641.266 688.48 642.875 689.491 643.513C696.228 647.771 701.438 654.059 704.372 661.469C707.612 669.71 708.132 678.693 707.572 687.446C707.234 692.74 706.519 697.999 705.798 703.251C705.741 703.489 705.776 703.739 705.897 703.951C706.018 704.164 706.214 704.322 706.448 704.395C706.685 704.459 706.939 704.427 707.153 704.305C707.367 704.183 707.525 703.982 707.592 703.745H707.594Z" fill="#F2F2F2"/>
<path d="M698.167 688.435C696.814 690.492 694.953 692.165 692.766 693.294C690.578 694.424 688.136 694.97 685.676 694.882C679.353 694.582 674.081 690.169 669.336 685.982L655.301 673.587L664.59 673.143C671.27 672.823 678.123 672.525 684.49 674.585C690.857 676.645 696.721 681.603 697.884 688.185" fill="#E6E6E6"/>
<path d="M711.295 709.23C704.995 698.074 697.677 685.675 684.61 681.712C680.976 680.614 677.167 680.22 673.386 680.553C672.194 680.653 672.492 682.493 673.686 682.39C680.023 681.864 686.349 683.537 691.598 687.129C696.649 690.567 700.581 695.346 703.909 700.415C705.948 703.515 707.774 706.756 709.6 709.988C710.18 711.02 711.886 710.275 711.295 709.23Z" fill="#F2F2F2"/>
<path d="M293.448 385.971C302.277 385.971 309.434 378.814 309.434 369.985C309.434 361.156 302.277 353.999 293.448 353.999C284.619 353.999 277.462 361.156 277.462 369.985C277.462 378.814 284.619 385.971 293.448 385.971Z" fill="#F35A79"/>
<path d="M285.795 366.999C285.611 366.999 285.462 368.192 285.462 369.663C285.462 371.134 285.611 372.328 285.795 372.328H301.514C301.698 372.352 301.85 371.179 301.853 369.708C301.955 368.792 301.843 367.865 301.525 367H285.795V366.999Z" fill="#E6E6E6"/>
<path d="M293.448 474.284C302.277 474.284 309.434 467.127 309.434 458.298C309.434 449.469 302.277 442.312 293.448 442.312C284.619 442.312 277.462 449.469 277.462 458.298C277.462 467.127 284.619 474.284 293.448 474.284Z" fill="#F35A79"/>
<path d="M285.795 455.312C285.611 455.312 285.462 456.505 285.462 457.976C285.462 459.447 285.611 460.641 285.795 460.641H301.514C301.698 460.665 301.85 459.492 301.853 458.021C301.955 457.105 301.843 456.178 301.525 455.313L285.795 455.312Z" fill="#E6E6E6"/>
<path d="M293.448 562.284C302.277 562.284 309.434 555.127 309.434 546.298C309.434 537.469 302.277 530.312 293.448 530.312C284.619 530.312 277.462 537.469 277.462 546.298C277.462 555.127 284.619 562.284 293.448 562.284Z" fill="#F35A79"/>
<path d="M285.795 543.312C285.611 543.312 285.462 544.505 285.462 545.976C285.462 547.447 285.611 548.641 285.795 548.641H301.514C301.698 548.665 301.85 547.492 301.853 546.021C301.955 545.105 301.843 544.178 301.525 543.313L285.795 543.312Z" fill="#E6E6E6"/>
<path d="M349.657 173L344 178.657L391.376 226.033L397.033 220.376L349.657 173Z" fill="white"/>
<path d="M397.033 178.657L391.376 173L344 220.376L349.657 226.033L397.033 178.657Z" fill="white"/>
</g>
<defs>
<clipPath id="clip0_380_1796">
<rect width="742.417" height="712.573" fill="white"/>
</clipPath>
</defs>
</svg>
