<svg width="222" height="222" viewBox="0 0 222 222" fill="none" xmlns="http://www.w3.org/2000/svg">
<path d="M83.25 203.5H138.75C185 203.5 203.5 185 203.5 138.75V83.25C203.5 37 185 18.5 138.75 18.5H83.25C37 18.5 18.5 37 18.5 83.25V138.75C18.5 185 37 203.5 83.25 203.5Z" stroke="#0085FF" stroke-opacity="0.87" stroke-width="6" stroke-linecap="round" stroke-linejoin="round"/>
<path d="M83.25 92.5C93.4673 92.5 101.75 84.2173 101.75 74C101.75 63.7827 93.4673 55.5 83.25 55.5C73.0327 55.5 64.75 63.7827 64.75 74C64.75 84.2173 73.0327 92.5 83.25 92.5Z" stroke="#0085FF" stroke-opacity="0.87" stroke-width="6" stroke-linecap="round" stroke-linejoin="round"/>
<path d="M24.698 175.288L70.3005 144.671C77.608 139.768 88.153 140.323 94.7205 145.966L97.773 148.648C104.988 154.846 116.643 154.846 123.858 148.648L162.338 115.626C169.553 109.428 181.208 109.428 188.423 115.626L203.5 128.576" stroke="#0085FF" stroke-opacity="0.87" stroke-width="6" stroke-linecap="round" stroke-linejoin="round"/>
</svg>
