<svg width="259" height="168" viewBox="0 0 259 168" fill="none" xmlns="http://www.w3.org/2000/svg">
<g clip-path="url(#clip0_188_577)">
<path d="M236.237 167.503L228.84 145.17C228.84 145.17 236.976 153.31 236.976 159.989L235.516 144.544C235.516 144.544 239.689 150.179 239.271 158.737C238.854 167.295 236.237 167.503 236.237 167.503Z" fill="#E6E6E6"/>
<path d="M77.3797 147.167L70.1602 125.371C70.1602 125.371 78.1011 133.315 78.1011 139.834L76.6758 124.76C76.6758 124.76 80.7481 130.26 80.3409 138.612C79.9337 146.964 77.3797 147.167 77.3797 147.167Z" fill="#E6E6E6"/>
<path d="M190.062 157.226C190.074 171.564 161.649 167.153 126.85 167.183C92.0507 167.214 64.0553 171.673 64.043 157.335C64.0306 142.996 92.4455 139.854 127.245 139.823C162.044 139.793 190.05 142.888 190.062 157.226Z" fill="#E6E6E6"/>
<path d="M259 167.175H0V167.831H259V167.175Z" fill="#3F3D56" fill-opacity="0.1"/>
<path d="M165.672 137.862H161.122L158.957 120.307H165.672V137.862Z" fill="#A0616A"/>
<path d="M157.371 136.562H166.65V142.088H152.352V141.583C152.352 140.251 152.88 138.974 153.822 138.032C154.763 137.091 156.039 136.562 157.371 136.562Z" fill="#2F2E41"/>
<path d="M199.113 163.774H194.564L192.398 146.218H199.113V163.774Z" fill="#A0616A"/>
<path d="M190.808 162.473H200.088V168H185.789V167.494C185.789 166.162 186.318 164.885 187.259 163.943C188.2 163.002 189.477 162.473 190.808 162.473Z" fill="#2F2E41"/>
<path d="M220.1 111.619C220.415 111.237 220.642 110.791 220.766 110.312C220.889 109.833 220.906 109.333 220.816 108.847C220.725 108.36 220.529 107.9 220.242 107.497C219.954 107.095 219.582 106.761 219.151 106.518L208.584 63.4551L201.828 66.3632L214.396 108.001C214.037 108.752 213.965 109.609 214.194 110.41C214.424 111.21 214.939 111.899 215.642 112.345C216.345 112.791 217.188 112.963 218.009 112.829C218.831 112.695 219.575 112.265 220.1 111.619Z" fill="#A0616A"/>
<path d="M211.857 24.5872C211.48 24.1929 211.021 23.886 210.513 23.6882C210.004 23.4905 209.459 23.4067 208.914 23.4427C208.37 23.4788 207.84 23.6338 207.362 23.8968C206.884 24.1599 206.47 24.5246 206.148 24.9652L189.793 26.8437L192.281 33.1547L207.155 30.3698C207.93 30.8617 208.86 31.0517 209.766 30.904C210.673 30.7563 211.494 30.281 212.073 29.5682C212.653 28.8555 212.951 27.9547 212.911 27.0367C212.872 26.1187 212.497 25.2471 211.857 24.5872Z" fill="#A0616A"/>
<path d="M184.906 107.152L192.043 160.738L200.925 158.908C200.925 158.908 199.619 119.883 204.06 115.179C208.502 110.474 198.348 102.232 198.348 102.232L184.906 107.152Z" fill="#2F2E41"/>
<path d="M187.855 92.3927L184.577 97.3125C184.577 97.3125 159.332 86.817 159.332 103.544C159.332 120.272 157.888 131.624 157.365 132.408C156.843 133.192 163.41 135.226 166.545 134.704C166.545 134.704 170.413 107.737 170.151 106.168C170.151 106.168 194.915 118.315 199.617 117.27C204.32 116.224 205.431 112.523 206.215 110.432C206.998 108.341 205.887 91.7367 205.887 91.7367L190.212 86.9512L187.855 92.3927Z" fill="#2F2E41"/>
<path d="M188.301 62.8544L187.366 61.7325C187.366 61.7325 176.9 38.1735 181.012 31.8163C185.124 25.4591 203.065 24.5242 203.626 24.8981C204.187 25.2721 202.287 30.1272 203.595 32.371C203.595 32.371 189.696 35.3856 188.762 35.7596C187.827 36.1335 195.963 49.953 195.963 49.953L195.029 58.3669L188.301 62.8544Z" fill="#CCCCCC"/>
<path d="M206.616 51.261C206.616 51.261 196.897 52.3828 196.523 52.3828C196.15 52.3828 195.963 49.9521 195.963 49.9521L187.366 61.7317C187.366 61.7317 183.13 95.9055 184.251 95.3445C185.373 94.7836 206.055 98.0051 206.242 96.5093C206.429 95.0135 206.055 87.5344 206.616 87.1605C207.176 86.7865 216.334 63.6014 216.334 63.6014C216.334 63.6014 215.4 58.74 212.223 57.0573C209.045 55.3745 206.616 51.261 206.616 51.261Z" fill="#CCCCCC"/>
<path d="M213.345 60.4229L216.335 63.6014C216.335 63.6014 220.778 100.127 218.348 101.248C215.919 102.37 211.136 102.232 211.136 102.232L206.43 84.9168L213.345 60.4229Z" fill="#CCCCCC"/>
<path d="M197.274 48.9485C202.025 48.9485 205.877 45.0955 205.877 40.3424C205.877 35.5894 202.025 31.7363 197.274 31.7363C192.523 31.7363 188.672 35.5894 188.672 40.3424C188.672 45.0955 192.523 48.9485 197.274 48.9485Z" fill="#A0616A"/>
<path d="M195.257 41.6852C195.14 39.8995 192.889 39.8383 191.1 39.8214C189.311 39.8045 187.173 39.8684 186.161 38.3929C185.492 37.4178 185.62 36.064 186.172 35.0186C186.725 33.9731 187.634 33.169 188.528 32.3955C190.836 30.3984 193.216 28.4172 195.987 27.1389C198.759 25.8606 202.007 25.3441 204.881 26.3702C208.412 27.6307 213.185 34.1193 213.597 37.8472C214.009 41.5752 212.52 45.3755 210.01 48.1612C207.5 50.947 201.754 49.823 198.138 50.814C200.337 47.7015 198.888 42.0459 195.366 40.5925L195.257 41.6852Z" fill="#2F2E41"/>
<path d="M118.588 153.006C129.994 153.006 139.239 143.757 139.239 132.346C139.239 120.936 129.994 111.687 118.588 111.687C107.183 111.687 97.9375 120.936 97.9375 132.346C97.9375 143.757 107.183 153.006 118.588 153.006Z" fill="#0C3C91"/>
<path d="M104.799 110.219C101.937 110.219 99.1362 109.389 96.7357 107.83C94.3353 106.27 92.438 104.049 91.2736 101.433L58.5044 27.6047C57.4189 25.1591 56.8448 22.5173 56.8174 19.8416C56.79 17.1659 57.3099 14.5128 58.345 12.0455C59.3802 9.57822 60.9088 7.34877 62.8369 5.49422C64.765 3.63968 67.0518 2.19922 69.5568 1.26138C72.0618 0.323536 74.7321 -0.0918685 77.4035 0.0407011C80.0749 0.173271 82.6909 0.851011 85.0909 2.03226C87.4908 3.21352 89.6239 4.87333 91.3591 6.90966C93.0943 8.946 94.3948 11.3158 95.1808 13.8735L118.91 91.0868C119.589 93.2969 119.741 95.6356 119.353 97.915C118.965 100.194 118.048 102.351 116.676 104.212C115.303 106.072 113.514 107.585 111.451 108.628C109.389 109.671 107.11 110.216 104.799 110.219Z" fill="#0C3C91"/>
</g>
<defs>
<clipPath id="clip0_188_577">
<rect width="259" height="168" fill="white"/>
</clipPath>
</defs>
</svg>
